<svg width="200" height="200" viewBox="0 0 200 200" fill="none" xmlns="http://www.w3.org/2000/svg">
<rect width="200" height="200" rx="50" fill="#dddddd"/>
<path d="M81.2578 150H68.1797V63.3047L41.9531 72.9375V61.125L79.2188 47.1328H81.2578V150Z" fill="#B80000"/>
<path d="M102.814 133H99.5449V111.326L92.9883 113.734V110.781L102.305 107.283H102.814V133Z" fill="#B80000"/>
<path d="M132.543 127H130.363V112.551L125.992 114.156V112.188L132.203 109.855H132.543V127Z" fill="#B80000"/>
<path d="M147.352 122.168C147.352 129.785 146.051 135.445 143.449 139.148C140.848 142.852 136.781 144.703 131.25 144.703C125.789 144.703 121.746 142.898 119.121 139.289C116.496 135.656 115.137 130.242 115.043 123.047V114.363C115.043 106.84 116.344 101.25 118.945 97.5938C121.547 93.9375 125.625 92.1094 131.18 92.1094C136.688 92.1094 140.742 93.8789 143.344 97.418C145.945 100.934 147.281 106.371 147.352 113.73V122.168ZM140.848 113.273C140.848 107.766 140.074 103.758 138.527 101.25C136.98 98.7188 134.531 97.4531 131.18 97.4531C127.852 97.4531 125.426 98.707 123.902 101.215C122.379 103.723 121.594 107.578 121.547 112.781V123.188C121.547 128.719 122.344 132.809 123.938 135.457C125.555 138.082 127.992 139.395 131.25 139.395C134.461 139.395 136.84 138.152 138.387 135.668C139.957 133.184 140.777 129.27 140.848 123.926V113.273Z" fill="#05869B"/>
<path d="M119.352 73.168C119.352 80.7852 118.051 86.4453 115.449 90.1484C112.848 93.8516 108.781 95.7031 103.25 95.7031C97.7891 95.7031 93.7461 93.8984 91.1211 90.2891C88.4961 86.6562 87.1367 81.2422 87.043 74.0469V65.3633C87.043 57.8398 88.3438 52.25 90.9453 48.5938C93.5469 44.9375 97.625 43.1094 103.18 43.1094C108.688 43.1094 112.742 44.8789 115.344 48.418C117.945 51.9336 119.281 57.3711 119.352 64.7305V73.168ZM112.848 64.2734C112.848 58.7656 112.074 54.7578 110.527 52.25C108.98 49.7188 106.531 48.4531 103.18 48.4531C99.8516 48.4531 97.4258 49.707 95.9023 52.2148C94.3789 54.7227 93.5938 58.5781 93.5469 63.7812V74.1875C93.5469 79.7188 94.3438 83.8086 95.9375 86.457C97.5547 89.082 99.9922 90.3945 103.25 90.3945C106.461 90.3945 108.84 89.1523 110.387 86.668C111.957 84.1836 112.777 80.2695 112.848 74.9258V64.2734Z" fill="#05869B"/>
</svg>
